Coordinates
version=1
nRows=13
nColumns=63
inDegrees=yes

Units are S.I. units (second, meters, Newtons, ...)
If the header above contains a line with 'inDegrees', this indicates whether rotational values are in degrees (yes) or radians (no).

endheader
time	pelvis_tilt	pelvis_list	pelvis_rotation	pelvis_tx	pelvis_ty	pelvis_tz	hip_flexion_r	hip_adduction_r	hip_rotation_r	knee_angle_r	knee_angle_r_beta	ankle_angle_r	subtalar_angle_r	mtp_angle_r	hip_flexion_l	hip_adduction_l	hip_rotation_l	knee_angle_l	knee_angle_l_beta	ankle_angle_l	subtalar_angle_l	mtp_angle_l	L5_S1_Flex_Ext	L5_S1_Lat_Bending	L5_S1_axial_rotation	L4_L5_Flex_Ext	L4_L5_Lat_Bending	L4_L5_axial_rotation	L3_L4_Flex_Ext	L3_L4_Lat_Bending	L3_L4_axial_rotation	L2_L3_Flex_Ext	L2_L3_Lat_Bending	L2_L3_axial_rotation	L1_L2_Flex_Ext	L1_L2_Lat_Bending	L1_L2_axial_rotation	L1_T12_Flex_Ext	L1_T12_Lat_Bending	L1_T12_axial_rotation	Abs_r3	Abs_r2	Abs_r1	Abs_t1	Abs_t2	neck_flexion	neck_bending	neck_rotation	arm_flex_r	arm_add_r	arm_rot_r	elbow_flex_r	pro_sup_r	wrist_flex_r	wrist_dev_r	arm_flex_l	arm_add_l	arm_rot_l	elbow_flex_l	pro_sup_l	wrist_flex_l	wrist_dev_l
0.000000	-2.650263	-6.077682	81.616115	0.311236	0.999653	0.346754	1.790133	0.441998	-4.843791	9.956471	0.173773	21.008239	-4.540087	0.000000	1.554010	-0.293049	3.462059	6.582325	0.114883	26.400528	-7.475724	0.000000	0.134426	-0.069976	2.493249	0.249642	-0.093069	2.649077	0.220848	-0.170141	2.649077	0.153635	-0.170141	2.181593	0.124828	-0.142696	2.025765	0.076811	-0.108393	1.869936	0.960190	-0.791587	13.866701	0.000000	0.000000	27.351091	-4.365682	-20.915708	12.918993	-19.389144	69.710891	54.945687	81.401260	10.762996	-7.444818	14.292622	-12.599757	62.523194	58.993382	55.753122	3.912640	13.611341
0.016667	-2.507784	-6.150552	81.532106	0.311939	0.999919	0.346809	1.819317	0.612229	-4.647313	9.625231	0.167992	21.273356	-4.460741	0.000000	1.918591	-0.490664	3.347261	7.103018	0.123971	26.926719	-7.503183	0.000000	0.132209	-0.057004	2.515439	0.245526	-0.075816	2.672654	0.217207	-0.138600	2.672654	0.151102	-0.138600	2.201009	0.122770	-0.116243	2.043794	0.075544	-0.088299	1.886579	0.944359	-0.644843	13.990117	0.000000	0.000000	27.391577	-4.562100	-21.135636	12.944489	-19.381844	69.699566	54.987925	82.289593	10.432209	-7.912451	14.312479	-12.486441	61.972065	58.712554	56.507556	5.433554	14.269650
0.033333	-2.378729	-6.192007	81.465257	0.312481	1.000140	0.346860	1.844990	0.767245	-4.380086	9.384082	0.163783	21.511963	-4.525375	0.000000	2.229746	-0.657959	3.261458	7.600149	0.132648	27.378160	-7.603617	0.000000	0.129818	-0.043378	2.517391	0.241085	-0.057692	2.674728	0.213278	-0.105469	2.674728	0.148369	-0.105469	2.202717	0.120549	-0.088456	2.045380	0.074178	-0.067192	1.888043	0.927276	-0.490697	14.000974	0.000000	0.000000	27.409707	-4.652394	-21.131455	13.044597	-19.349252	69.866099	54.946610	82.613402	10.251716	-8.276861	14.314382	-12.397227	61.524704	58.457382	57.020357	6.603511	14.801553
0.050000	-2.263260	-6.206200	81.413521	0.312879	1.000320	0.346906	1.868073	0.906612	-4.055339	9.223764	0.160985	21.726838	-4.709674	0.000000	2.491824	-0.796617	3.201568	8.071739	0.140878	27.759507	-7.767556	0.000000	0.127326	-0.029420	2.502151	0.236457	-0.039128	2.658536	0.209184	-0.071532	2.658536	0.145521	-0.071532	2.189382	0.118235	-0.059993	2.032998	0.072754	-0.045571	1.876614	0.909477	-0.332804	13.916215	0.000000	0.000000	27.408473	-4.650670	-20.936848	13.206538	-19.295135	70.181754	54.833110	82.439391	10.205313	-8.546413	14.301620	-12.329700	61.174390	58.226745	57.318233	7.456249	15.217827
0.066667	-2.161541	-6.197282	81.374849	0.313147	1.000462	0.346947	1.889486	1.029896	-3.686303	9.135016	0.159436	21.920763	-4.989325	0.000000	2.709174	-0.908320	3.164511	8.515809	0.148629	28.075418	-7.985533	0.000000	0.124809	-0.015454	2.472766	0.231783	-0.020554	2.627314	0.205049	-0.037575	2.627314	0.142644	-0.037575	2.163670	0.115898	-0.031514	2.009123	0.071316	-0.023938	1.854575	0.891499	-0.174817	13.752784	0.000000	0.000000	27.390865	-4.571034	-20.585498	13.417537	-19.223261	70.617795	54.658792	81.834265	10.276793	-8.729467	14.277485	-12.281442	60.914403	58.019519	57.427889	8.025504	15.529251
0.083333	-2.073736	-6.169404	81.347194	0.313303	1.000571	0.346981	1.910150	1.136665	-3.286206	9.108581	0.158975	22.096517	-5.340015	0.000000	2.886144	-0.994751	3.147203	8.930380	0.155865	28.330548	-8.248077	0.000000	0.122342	-0.001803	2.432282	0.227202	-0.002397	2.584300	0.200996	-0.004383	2.584300	0.139825	-0.004383	2.128247	0.113607	-0.003676	1.976229	0.069906	-0.002792	1.824211	0.873878	-0.020390	13.527623	0.000000	0.000000	27.359872	-4.427592	-20.111088	13.664816	-19.137396	71.145485	54.435024	80.864729	10.449954	-8.834388	14.245268	-12.250038	60.738022	57.834581	57.376034	8.345012	15.746602
0.100000	-2.000007	-6.126717	81.328510	0.313363	1.000648	0.347007	1.930985	1.226484	-2.868278	9.135198	0.159439	22.256880	-5.737430	0.000000	3.027084	-1.057593	3.146563	9.313474	0.162551	28.529555	-8.545722	0.000000	0.120000	0.011211	2.383745	0.222852	0.014911	2.532729	0.197148	0.027259	2.532729	0.137148	0.027259	2.085777	0.111432	0.022862	1.936793	0.068568	0.017366	1.787809	0.857149	0.126822	13.257675	0.000000	0.000000	27.318485	-4.234450	-19.547299	13.935598	-19.041308	71.736089	54.173171	79.597488	10.708588	-8.869537	14.208257	-12.233070	60.638526	57.670808	57.189374	8.448508	15.880658
0.116667	-1.940518	-6.073374	81.316748	0.313343	1.000698	0.347024	1.952912	1.298919	-2.445749	9.205608	0.160668	22.404632	-6.157257	0.000000	3.136343	-1.098527	3.159511	9.663111	0.168653	28.677095	-8.868997	0.000000	0.117858	0.023264	2.330202	0.218875	0.030941	2.475840	0.193629	0.056564	2.475840	0.134700	0.056564	2.038927	0.109443	0.047440	1.893289	0.067344	0.036036	1.747651	0.841850	0.263166	12.959884	0.000000	0.000000	27.269694	-4.005713	-18.927816	14.217106	-18.938765	72.360870	53.884602	78.099246	11.036493	-8.843277	14.169744	-12.228124	60.609193	57.527078	56.894616	8.369730	15.942197
0.133333	-1.895433	-6.013524	81.309861	0.313258	1.000724	0.347030	1.976852	1.353537	-2.031848	9.310551	0.162500	22.542553	-6.575182	0.000000	3.218269	-1.119237	3.182962	9.977314	0.174137	28.777825	-9.208435	0.000000	0.115992	0.034033	2.274699	0.215408	0.045264	2.416867	0.190563	0.082748	2.416867	0.132567	0.082748	1.990361	0.107710	0.069400	1.848193	0.066278	0.052717	1.706024	0.828517	0.384988	12.651192	0.000000	0.000000	27.216489	-3.755487	-18.286319	14.496563	-18.833533	72.991091	53.580684	76.436709	11.417462	-8.763970	14.133020	-12.232781	60.643303	57.402267	56.518467	8.142413	15.941996
0.150000	-1.864915	-5.951319	81.305802	0.313126	1.000730	0.347025	2.003724	1.389905	-1.639806	9.440767	0.164772	22.673422	-6.966893	0.000000	3.277212	-1.121406	3.213837	10.254103	0.178968	28.836401	-9.554567	0.000000	0.114475	0.043195	2.220282	0.212592	0.057450	2.359050	0.188071	0.105025	2.359050	0.130834	0.105025	1.942747	0.106302	0.088084	1.803979	0.065411	0.066910	1.665212	0.817685	0.488634	12.348543	0.000000	0.000000	27.161860	-3.497879	-17.656492	14.761191	-18.729380	73.598017	53.272784	74.676582	11.835291	-8.639981	14.101374	-12.244627	60.734136	57.295251	56.087634	7.800294	15.890834
0.166667	-1.849127	-5.890911	81.302523	0.312962	1.000720	0.347008	2.034450	1.407588	-1.282851	9.586998	0.167325	22.800021	-7.308075	0.000000	3.317520	-1.106715	3.249053	10.491500	0.183111	28.857479	-9.897925	0.000000	0.113384	0.050428	2.169998	0.210566	0.067069	2.305623	0.186279	0.122610	2.305623	0.129587	0.122610	1.898748	0.105289	0.102832	1.763124	0.064788	0.078113	1.627499	0.809892	0.570450	12.068879	0.000000	0.000000	27.108799	-3.246994	-17.072017	14.998214	-18.630072	74.152912	52.972268	72.885569	12.273775	-8.479670	14.078098	-12.261244	60.874969	57.204909	55.628824	7.377108	15.799488
0.183333	-1.867007	-5.846545	81.310543	0.312833	1.000701	0.347010	2.078042	1.386873	-1.030220	9.733159	0.169876	22.892805	-7.544449	0.000000	3.353800	-1.058714	3.344726	10.682516	0.186445	28.841238	-10.237469	0.000000	0.111406	0.050232	2.151808	0.206893	0.066809	2.286296	0.183030	0.122135	2.286296	0.127326	0.122135	1.882832	0.103452	0.102434	1.748344	0.063658	0.077810	1.613856	0.795765	0.568239	11.967713	0.000000	0.000000	27.067306	-3.122653	-16.871551	15.083322	-18.556507	74.381118	52.724929	71.497133	12.660932	-8.378229	14.142947	-12.242372	61.150419	57.079620	55.325670	6.999397	15.650731
0.200000	-1.897776	-5.821897	81.285632	0.312740	1.000675	0.346946	2.128760	1.349137	-0.830716	9.854833	0.171999	23.022330	-7.603260	0.000000	3.376640	-1.011067	3.311826	10.802402	0.188537	28.819276	-10.431956	0.000000	0.111680	0.048377	2.139596	0.207401	0.064341	2.273321	0.183479	0.117623	2.273321	0.127639	0.117623	1.872146	0.103706	0.098650	1.738422	0.063814	0.074936	1.604697	0.797718	0.547248	11.899790	0.000000	0.000000	27.042680	-2.992379	-16.701896	15.135283	-18.494952	74.548189	52.535621	70.088451	13.035585	-8.142137	14.187737	-12.254220	61.427499	57.019459	54.885505	6.539035	15.534163
